<?xml version="1.0" standalone="no"?>
<!DOCTYPE svg PUBLIC "-//W3C//DTD SVG 20010904//EN"
 "http://www.w3.org/TR/2001/REC-SVG-20010904/DTD/svg10.dtd">
<svg version="1.0" xmlns="http://www.w3.org/2000/svg"
 width="2922.000000pt" height="1038.000000pt" viewBox="0 0 2922.000000 1038.000000"
 preserveAspectRatio="xMidYMid meet">

<g transform="translate(0.000000,1038.000000) scale(0.100000,-0.100000)"
fill="#000000" stroke="none">
<path d="M24766 8428 c2 -4 0 -9 -5 -12 -5 -4 -12 -2 -16 4 -3 5 -16 10 -28 9
-21 0 -21 -1 -2 -10 14 -6 4 -7 -29 -3 -35 5 -51 3 -57 -7 -7 -12 -9 -11 -9 1
0 13 -1 13 -10 0 -9 -13 -11 -13 -20 0 -9 13 -10 13 -10 0 0 -13 -1 -13 -10 0
-9 13 -14 11 -32 -10 -14 -16 -19 -19 -15 -7 5 13 1 17 -16 17 -12 0 -29 -5
-37 -10 -11 -8 -7 -9 15 -5 28 5 29 5 6 -5 -14 -6 -32 -8 -40 -4 -9 4 -20 6
-26 4 -5 -1 -33 -4 -62 -6 -28 -2 -70 -10 -94 -18 -23 -8 -47 -12 -52 -9 -6 4
-7 1 -2 -7 6 -10 1 -12 -23 -7 -25 5 -30 3 -26 -8 5 -11 17 -13 52 -8 26 3 45
3 42 0 -10 -11 -111 -16 -104 -5 4 6 -2 8 -16 3 -15 -5 -20 -4 -16 4 4 6 2 9
-7 5 -7 -2 -14 -10 -14 -17 0 -7 -3 -23 -7 -37 -6 -19 -5 -21 3 -10 8 12 11 8
12 -20 1 -19 1 -42 0 -50 0 -10 1 -11 5 -2 4 9 12 5 25 -12 25 -32 24 -44 -2
-20 -22 19 -22 19 -11 -2 6 -12 8 -25 4 -29 -4 -5 2 -5 13 -1 16 6 18 5 8 -5
-15 -15 -17 -33 -3 -24 5 3 8 0 5 -7 -3 -7 2 -35 9 -63 8 -27 15 -42 15 -32 1
9 8 17 17 17 15 0 15 -2 0 -25 -18 -27 -21 -39 -7 -31 4 3 13 -6 20 -20 15
-35 14 -41 -5 -18 -14 18 -15 18 -10 1 3 -11 9 -30 12 -43 3 -13 12 -24 20
-24 8 0 14 -4 14 -10 0 -5 -5 -10 -11 -10 -6 0 -3 -7 5 -16 17 -17 22 -39 7
-29 -5 3 -3 -8 5 -25 9 -16 12 -35 8 -41 -4 -8 -3 -9 4 -5 11 7 16 -7 15 -41
-1 -7 3 -10 8 -7 5 3 6 -10 3 -28 -4 -25 -3 -29 5 -18 9 12 11 10 10 -10 0
-14 4 -43 9 -65 10 -46 31 -89 32 -65 0 8 7 2 15 -14 18 -34 14 -44 -9 -21 -9
9 -16 12 -16 6 0 -5 5 -13 10 -16 6 -4 10 -12 9 -18 -1 -7 -1 -19 1 -27 1 -11
4 -9 11 5 7 17 9 16 8 -10 -1 -16 0 -32 1 -35 1 -3 3 -20 5 -38 1 -18 11 -42
21 -54 11 -12 14 -18 7 -15 -17 10 2 -54 19 -65 9 -5 15 2 19 25 6 30 6 30 8
5 1 -25 21 -52 21 -28 0 8 10 9 28 5 20 -4 33 -1 41 9 10 12 18 13 32 5 13 -7
26 -6 40 2 12 6 36 8 53 5 24 -5 27 -3 16 5 -11 8 -3 9 33 4 33 -4 47 -3 47 6
0 8 5 7 17 -2 15 -13 16 -12 11 9 -5 19 -4 21 8 11 7 -6 11 -15 8 -20 -8 -13
7 -10 36 6 28 16 54 20 30 5 -12 -8 -9 -10 13 -10 18 0 27 5 27 16 0 12 3 14
13 6 7 -6 62 -13 122 -15 68 -3 101 -2 88 4 -30 11 -29 17 2 11 14 -2 25 -11
25 -19 0 -12 3 -13 14 -4 11 9 15 9 19 -1 4 -8 8 -9 14 -3 10 12 93 13 86 1
-4 -5 -1 -6 5 -2 6 3 13 2 17 -3 7 -13 149 -4 153 9 2 6 8 10 14 10 6 0 6 -6
-2 -15 -7 -8 -24 -15 -38 -15 -14 0 -22 -3 -18 -7 13 -14 51 -8 64 10 7 9 19
17 26 17 8 0 17 7 20 16 9 24 7 31 -5 12 -11 -20 -29 -24 -29 -7 0 5 4 7 10 4
5 -3 12 6 16 21 4 14 10 21 13 15 4 -6 7 16 7 49 0 33 -4 60 -8 60 -4 0 -8 6
-8 13 1 6 10 1 21 -12 15 -19 17 -26 7 -32 -10 -7 -10 -11 0 -21 9 -9 12 -8
13 7 1 11 1 26 0 33 -1 6 3 12 9 12 6 0 9 3 7 8 -3 4 3 25 14 46 20 42 25 61
9 36 -8 -13 -10 -12 -10 3 0 9 5 17 10 17 5 0 9 6 7 13 -1 6 4 11 12 9 8 -2
11 3 8 13 -4 8 -2 15 4 15 6 0 7 5 4 10 -4 6 -1 17 5 25 7 8 9 15 5 15 -5 0 0
10 11 22 10 12 14 18 7 15 -6 -4 -14 -3 -18 3 -3 5 0 10 7 10 17 0 38 44 28
60 -4 6 -3 34 1 62 5 28 5 56 2 61 -3 6 -1 7 5 3 6 -3 13 2 15 11 3 12 5 8 6
-9 0 -15 -3 -30 -9 -33 -5 -3 -10 -25 -10 -47 0 -62 16 -30 19 40 1 7 6 10 13
6 7 -5 8 -3 4 5 -5 7 -1 20 8 30 10 11 14 25 10 36 -5 13 -4 16 4 11 8 -5 10
-2 6 8 -3 9 -1 16 5 16 6 0 8 7 4 17 -5 12 -3 14 8 8 11 -6 12 -5 2 6 -7 7
-13 20 -13 28 0 14 1 14 10 1 8 -12 10 -10 10 8 0 15 4 21 12 16 7 -4 8 -3 4
4 -4 6 0 25 9 43 9 17 14 37 11 45 -3 8 -1 14 3 14 11 0 53 84 49 96 -1 5 6
24 16 42 9 19 15 36 12 40 -3 3 -6 -1 -6 -9 0 -12 -2 -11 -11 1 -8 12 -10 10
-5 -10 5 -24 4 -24 -9 -6 -17 23 -16 25 15 31 29 6 39 15 16 15 -9 0 -14 5
-11 10 9 14 -8 12 -24 -2 -12 -11 -13 -10 -7 6 5 15 3 17 -11 11 -25 -11 -107
-14 -91 -4 7 5 24 9 37 9 36 0 22 8 -24 14 -22 2 -52 9 -67 15 -15 5 -48 12
-75 15 -26 3 -59 8 -73 11 -19 5 -22 4 -10 -4 13 -9 13 -11 0 -11 -9 0 -20 4
-26 10 -12 12 -55 19 -149 24 -46 3 -60 1 -40 -4 23 -6 25 -8 8 -9 -30 -1 -54
9 -47 21 4 6 -1 8 -12 4 -11 -3 -34 -2 -52 3 -30 9 -31 8 -22 -10 10 -17 7
-19 -22 -19 -18 0 -46 7 -63 16 -22 13 -61 17 -152 19 -68 1 -121 -1 -118 -3
6 -6 -26 -31 -40 -31 -5 0 -1 6 9 14 21 16 19 17 -31 19 -17 1 -29 -2 -27 -6z
m35 -17 c-6 -10 -7 -21 -3 -25 3 -4 -1 -4 -11 0 -21 8 -21 13 1 30 23 18 24
17 13 -5z m246 7 c-7 -4 4 -8 23 -9 l35 -1 -40 -9 c-22 -4 -56 -7 -75 -7 -32
1 -31 2 10 8 l45 7 -42 1 c-62 3 -60 17 2 17 29 0 48 -3 42 -7z m-117 -6 c0
-5 -13 -7 -30 -4 -16 2 -30 6 -30 8 0 2 14 4 30 4 17 0 30 -4 30 -8z m-63 -18
c-3 -3 -12 -4 -19 -1 -8 3 -5 6 6 6 11 1 17 -2 13 -5z m40 0 c-3 -3 -12 -4
-19 -1 -8 3 -5 6 6 6 11 1 17 -2 13 -5z m280 -10 c-3 -3 -12 -4 -19 -1 -8 3
-5 6 6 6 11 1 17 -2 13 -5z m316 -1 c-7 -2 -19 -2 -25 0 -7 3 -2 5 12 5 14 0
19 -2 13 -5z m-1143 -39 c0 -2 -7 -4 -15 -4 -8 0 -15 4 -15 10 0 5 7 7 15 4 8
-4 15 -8 15 -10z m1347 10 c-3 -3 -12 -4 -19 -1 -8 3 -5 6 6 6 11 1 17 -2 13
-5z m-1390 -20 c-3 -3 -12 -4 -19 -1 -8 3 -5 6 6 6 11 1 17 -2 13 -5z m1383 2
c0 -3 -4 -8 -10 -11 -5 -3 -10 -1 -10 4 0 6 5 11 10 11 6 0 10 -2 10 -4z
m-1405 -26 c-3 -5 -10 -10 -16 -10 -5 0 -9 5 -9 10 0 6 7 10 16 10 8 0 12 -4
9 -10z m1555 0 c0 -3 -20 -6 -45 -6 -25 -1 -41 2 -36 6 14 8 81 8 81 0z
m-1702 -21 c3 -12 2 -12 -6 0 -8 11 -10 11 -15 0 -4 -10 -6 -8 -6 4 -1 21 21
18 27 -4z m95 14 c-7 -2 -19 -2 -25 0 -7 3 -2 5 12 5 14 0 19 -2 13 -5z m-98
-84 c11 -16 1 -19 -13 -3 -7 8 -8 14 -3 14 5 0 13 -5 16 -11z m1715 -46 c0 -7
-4 -13 -10 -13 -5 0 -7 7 -4 15 4 11 2 13 -9 9 -8 -3 -18 0 -23 7 -5 9 -2 10
9 6 10 -4 17 -1 17 6 0 16 20 -14 20 -30z m-20 -33 c0 -5 -5 -10 -11 -10 -5 0
-7 5 -4 10 3 6 8 10 11 10 2 0 4 -4 4 -10z m-68 -22 c-7 -7 -12 -8 -12 -2 0
14 12 26 19 19 2 -3 -1 -11 -7 -17z m28 -8 c-6 -11 -13 -20 -16 -20 -2 0 0 9
6 20 6 11 13 20 16 20 2 0 0 -9 -6 -20z m13 -35 c-3 -9 -8 -14 -10 -11 -3 3
-2 9 2 15 9 16 15 13 8 -4z m-1625 -29 c-7 -8 -15 -12 -17 -11 -5 6 10 25 20
25 5 0 4 -6 -3 -14z m39 -38 c-3 -7 -5 -2 -5 12 0 14 2 19 5 13 2 -7 2 -19 0
-25z m6 -68 c-6 -7 -23 23 -23 40 0 8 6 4 13 -10 8 -14 12 -27 10 -30z m2 -50
c3 -5 1 -10 -4 -10 -6 0 -11 5 -11 10 0 6 2 10 4 10 3 0 8 -4 11 -10z m1458
-10 c3 -11 1 -18 -4 -14 -5 3 -9 12 -9 20 0 20 7 17 13 -6z m44 -12 c-3 -8 -6
-5 -6 6 -1 11 2 17 5 13 3 -3 4 -12 1 -19z m-1447 -110 c0 -19 -2 -20 -10 -8
-13 19 -13 30 0 30 6 0 10 -10 10 -22z m10 -63 c0 -5 -5 -3 -10 5 -5 8 -10 20
-10 25 0 6 5 3 10 -5 5 -8 10 -19 10 -25z m1339 -67 c-1 -18 -3 -25 -6 -15 -2
9 -9 15 -14 12 -11 -7 -11 -3 -3 19 11 27 24 17 23 -16z m-1239 -229 c0 -6 -4
-7 -10 -4 -5 3 -10 11 -10 16 0 6 5 7 10 4 6 -3 10 -11 10 -16z m0 -54 c0 -5
-5 -3 -10 5 -5 8 -10 20 -10 25 0 6 5 3 10 -5 5 -8 10 -19 10 -25z m1140 -25
c0 -5 -2 -10 -4 -10 -3 0 -8 5 -11 10 -3 6 -1 10 4 10 6 0 11 -4 11 -10z
m-966 -81 c-8 -14 -21 -11 -21 5 0 8 6 12 14 9 7 -3 10 -9 7 -14z m151 11 c-3
-5 2 -10 11 -10 10 0 15 -2 12 -5 -3 -4 -18 -3 -34 1 -25 6 -26 8 -9 15 27 10
27 10 20 -1z m112 4 c-3 -3 -12 -4 -19 -1 -8 3 -5 6 6 6 11 1 17 -2 13 -5z
m499 -11 c-3 -19 -19 -21 -21 -2 -2 9 3 16 10 16 7 0 12 -6 11 -14z m56 -16
c-16 -7 -26 -7 -35 2 -9 10 -8 11 7 5 13 -5 17 -4 13 3 -5 7 1 9 15 5 l22 -5
-22 -10z m-962 -13 c0 -8 -4 -12 -10 -9 -5 3 -10 13 -10 21 0 8 5 12 10 9 6
-3 10 -13 10 -21z m54 12 c-10 -8 -21 -12 -24 -10 -5 6 21 24 34 24 6 0 1 -6
-10 -14z m131 4 c-3 -5 -14 -10 -23 -9 -14 0 -13 2 3 9 27 11 27 11 20 0z
m-88 -26 c-3 -3 -12 -4 -19 -1 -8 3 -5 6 6 6 11 1 17 -2 13 -5z"/>
<path d="M25130 8428 c0 -5 6 -8 13 -8 6 0 22 -3 35 -6 17 -5 21 -3 17 8 -6
15 -65 20 -65 6z"/>
<path d="M25922 7700 c-112 -307 -201 -564 -197 -570 3 -5 13 -10 21 -10 8 0
75 -20 149 -45 258 -86 535 -227 758 -387 60 -43 115 -77 121 -74 6 2 94 82
196 177 102 95 241 224 310 288 223 208 275 255 289 269 12 11 6 21 -35 64
-192 197 -554 462 -829 607 -176 93 -526 241 -568 241 -7 0 -103 -250 -215
-560z"/>
<path d="M25495 7199 c-11 -17 1 -21 15 -4 8 9 8 15 2 15 -6 0 -14 -5 -17 -11z"/>
<path d="M27680 7168 c-313 -289 -569 -528 -672 -627 l-78 -74 125 -128 c216
-224 372 -444 511 -723 46 -93 84 -175 84 -183 0 -11 82 -13 466 -13 438 0
465 1 460 18 -2 9 -14 67 -26 127 -84 425 -278 883 -542 1278 -63 93 -273 368
-281 367 -1 0 -22 -19 -47 -42z"/>
<path d="M26599 6067 c-64 -72 -219 -249 -345 -392 -126 -143 -294 -334 -374
-425 -79 -91 -161 -183 -181 -205 -20 -22 -105 -119 -189 -215 -445 -507 -409
-470 -450 -470 -63 0 -164 -37 -228 -84 -170 -125 -224 -352 -131 -544 55
-113 170 -204 291 -231 26 -6 248 -10 547 -10 277 0 506 -2 509 -6 8 -8 9 -30
11 -270 l1 -210 318 2 317 2 3 243 2 243 138 0 c75 0 145 1 155 3 16 4 17 26
17 278 l0 274 -155 0 -155 0 0 1056 c0 708 3 1062 10 1075 6 10 9 19 8 19 -2
0 -55 -60 -119 -133z m-499 -1462 l0 -555 -297 2 -296 3 -15 40 -14 40 308
512 c170 282 310 513 312 513 1 0 2 -250 2 -555z"/>
<path d="M23625 5813 c-155 -13 -318 -60 -435 -124 -108 -60 -250 -206 -308
-316 -73 -139 -107 -262 -119 -425 l-6 -88 309 0 310 0 11 90 c26 201 119 307
279 318 202 13 317 -123 301 -358 -12 -173 -91 -332 -271 -547 -135 -161 -340
-351 -721 -668 -104 -87 -196 -165 -203 -174 -9 -12 -12 -70 -12 -234 1 -121
4 -225 7 -233 4 -12 150 -14 949 -14 l944 0 0 265 0 265 -506 0 -505 0 110 90
c339 277 622 589 730 806 89 179 122 318 122 516 1 268 -68 450 -230 608 -149
145 -351 216 -631 223 -52 1 -108 1 -125 0z"/>
<path d="M2260 5589 c-327 -27 -586 -181 -700 -413 -58 -117 -73 -188 -73
-336 0 -209 53 -340 188 -469 117 -111 246 -167 635 -276 111 -31 237 -70 279
-86 143 -56 244 -149 272 -252 17 -64 7 -193 -20 -249 -70 -146 -224 -228
-431 -228 -249 0 -419 122 -462 332 l-12 58 -229 0 -230 0 5 -77 c24 -338 304
-596 723 -664 103 -16 316 -14 416 5 471 88 753 465 674 900 -25 140 -67 220
-169 321 -125 123 -239 176 -627 289 -307 90 -376 117 -457 183 -62 51 -90 92
-108 163 -29 115 11 258 92 330 135 118 382 142 563 53 80 -38 163 -124 189
-196 12 -32 22 -67 22 -77 0 -19 8 -20 241 -20 l240 0 -6 48 c-62 449 -459
708 -1015 661z"/>
<path d="M13080 4264 l0 -1325 708 4 c668 3 712 5 797 24 257 59 438 184 530
368 51 102 68 181 69 315 1 137 -12 196 -67 310 -56 115 -168 229 -277 282
-41 20 -90 39 -107 43 -32 6 -46 25 -19 25 37 0 164 78 233 143 131 125 192
292 179 495 -24 362 -283 589 -723 632 -54 5 -374 10 -710 10 l-613 0 0 -1326z
m1238 777 c65 -29 125 -95 142 -156 20 -72 9 -183 -24 -240 -33 -55 -97 -99
-167 -114 -28 -6 -161 -11 -299 -11 l-250 0 0 276 0 275 273 -3 c262 -3 274
-4 325 -27z m17 -1014 c129 -43 198 -139 199 -276 1 -135 -61 -224 -187 -268
-45 -16 -88 -18 -337 -18 l-285 0 -3 280 c-1 154 0 286 3 293 8 22 541 12 610
-11z"/>
<path d="M12000 5532 l-205 -2 3 -255 3 -255 -126 0 -125 0 0 -175 0 -175 119
0 c98 0 120 -3 125 -16 3 -8 6 -297 6 -642 -1 -591 1 -631 19 -704 25 -96 48
-142 103 -201 58 -62 141 -110 241 -138 75 -21 103 -23 327 -23 l245 -1 2 177
1 176 -181 4 c-171 3 -185 5 -231 28 -36 18 -56 36 -70 65 -20 39 -21 57 -24
658 l-2 617 254 0 254 0 1 175 2 175 -255 0 -256 0 0 254 c0 195 -3 255 -12
257 -7 2 -105 3 -218 1z"/>
<path d="M27767 5088 c70 -254 108 -566 102 -842 l-4 -158 309 -134 c169 -74
310 -134 312 -134 16 0 76 269 103 457 41 279 51 636 24 876 l-6 57 -437 0
-437 0 34 -122z"/>
<path d="M16135 5046 c-116 -31 -188 -63 -281 -127 -327 -227 -482 -686 -398
-1181 68 -403 326 -704 683 -800 104 -28 304 -30 416 -4 155 34 308 127 405
243 l45 54 3 -145 3 -146 319 0 320 0 0 1050 0 1050 -320 0 -320 0 0 -142 0
-142 -66 72 c-155 170 -331 242 -589 241 -103 0 -149 -5 -220 -23z m598 -573
c175 -83 270 -249 271 -473 1 -174 -42 -291 -141 -392 -255 -259 -673 -127
-759 239 -22 92 -14 263 15 355 41 129 150 240 281 286 54 19 81 22 165 20 88
-3 108 -7 168 -35z"/>
<path d="M18735 5063 c-97 -13 -211 -49 -305 -95 -87 -43 -118 -65 -180 -128
-124 -124 -174 -243 -174 -415 -1 -170 41 -280 145 -382 113 -112 218 -159
559 -248 331 -87 387 -111 421 -182 36 -74 3 -154 -81 -195 -61 -30 -195 -37
-273 -14 -96 28 -175 103 -197 188 l-11 38 -314 0 -315 0 0 -31 c0 -94 69
-253 157 -362 212 -260 654 -383 1072 -297 291 59 506 237 566 467 19 74 19
223 0 298 -26 101 -63 165 -139 240 -116 115 -243 170 -606 265 -102 26 -212
58 -245 71 -73 27 -135 84 -136 125 -4 89 17 126 89 161 68 33 187 37 271 8
73 -24 144 -95 164 -161 l14 -49 298 -3 297 -2 -7 52 c-24 175 -123 357 -253
466 -166 137 -352 193 -636 191 -83 -1 -164 -4 -181 -6z"/>
<path d="M20923 5056 c-212 -40 -381 -125 -526 -265 -159 -153 -259 -361 -292
-609 -76 -567 171 -1030 642 -1202 205 -74 471 -88 693 -34 264 64 514 256
631 487 33 64 63 138 73 180 l6 27 -343 0 -344 0 -11 -25 c-21 -46 -102 -122
-155 -146 -45 -21 -68 -24 -167 -24 -105 0 -120 2 -170 27 -79 39 -132 88
-168 156 -27 51 -61 161 -62 200 0 9 152 12 729 12 l728 0 7 46 c9 71 7 224
-5 309 -17 124 -46 224 -95 324 -128 268 -339 440 -634 518 -82 22 -121 26
-280 29 -127 2 -207 -1 -257 -10z m372 -522 c132 -45 227 -156 242 -284 l6
-50 -403 0 -403 0 6 38 c4 20 23 70 42 110 52 104 148 177 268 202 58 13 182
4 242 -16z"/>
<path d="M4720 5044 c-77 -15 -179 -48 -238 -78 -76 -38 -182 -115 -212 -153
l-20 -26 0 117 0 116 -215 0 -215 0 -1 -1002 c0 -552 -2 -1012 -4 -1023 -3
-11 -2 -28 1 -37 5 -16 24 -18 220 -18 l214 0 0 636 c0 679 2 706 52 824 50
115 161 212 292 252 98 31 252 31 351 0 195 -59 316 -225 339 -462 3 -30 5
-324 6 -652 l0 -598 210 0 c209 0 210 0 210 22 0 12 1 301 3 642 3 601 3 623
24 698 12 42 29 92 39 110 57 113 162 201 288 240 99 31 263 30 356 -1 131
-45 220 -124 275 -244 59 -130 58 -117 62 -817 l3 -645 210 -3 c164 -2 210 0
210 10 4 189 -1 1335 -6 1372 -54 446 -377 725 -841 726 -127 0 -219 -16 -332
-60 -146 -57 -288 -168 -358 -282 -20 -32 -37 -58 -38 -58 -2 0 -15 20 -29 44
-57 98 -182 209 -303 270 -28 14 -91 38 -140 52 -75 23 -110 27 -238 30 -82 1
-161 0 -175 -2z"/>
<path d="M8370 5035 c-301 -64 -547 -259 -678 -535 -146 -309 -143 -722 6
-1033 127 -265 329 -441 599 -524 80 -24 103 -26 258 -27 148 -1 181 2 254 22
154 42 288 119 402 230 l69 68 0 -148 0 -148 220 0 220 0 0 1040 0 1040 -220
0 -220 0 0 -147 0 -148 -36 42 c-85 102 -272 215 -420 254 -103 27 -356 35
-454 14z m478 -391 c157 -53 281 -163 357 -319 61 -123 79 -221 72 -384 -3
-98 -10 -144 -31 -206 -69 -214 -226 -371 -431 -431 -73 -21 -218 -24 -295 -5
-176 43 -327 165 -413 336 -52 103 -68 173 -74 325 -5 117 -2 148 16 220 30
120 81 219 154 297 99 106 211 167 355 193 76 14 206 3 290 -26z"/>
<path d="M11130 5029 c-127 -33 -215 -82 -306 -173 -44 -45 -88 -92 -97 -106
-15 -24 -16 -17 -16 123 l-1 147 -215 0 -215 0 0 -1040 0 -1040 215 0 215 0 0
573 c0 314 3 597 6 627 30 320 181 460 497 462 l117 1 0 223 0 224 -62 -1
c-35 0 -97 -9 -138 -20z"/>
<path d="M27806 3741 c-34 -167 -125 -444 -200 -609 -31 -68 -56 -124 -56
-125 0 -3 602 2 605 5 12 13 132 252 165 328 63 143 110 274 102 281 -4 3 -29
15 -57 26 -27 12 -158 68 -291 125 l-240 105 -28 -136z"/>
</g>
</svg>
